<svg width="220" height="220" viewBox="0 0 220 220" fill="none" xmlns="http://www.w3.org/2000/svg">
  <path d="M54 20C48.4772 20 44 24.4772 44 30V190C44 195.523 48.4772 200 54 200H166C171.523 200 176 195.523 176 190V81.1421C176 78.4899 174.946 75.9464 173.071 74.0711L121.929 22.9289C120.054 21.0536 117.51 20 114.858 20H54Z" fill="none" stroke="black" stroke-width="12"/>
  <path d="M120 22V74C120 79.5228 124.477 84 130 84H176" stroke="black" stroke-width="12"/>
  <rect x="25" y="86" width="170" height="72" rx="10" fill="black"/>
  <path d="M55.608 141.2C49.736 141.2 45.16 137.2 45.16 131.392V126.368H57.96V130.624C57.96 132.032 58.728 132.8 60.008 132.8C61.416 132.8 62.12 132.032 62.12 130.624V102.4H74.984V131.456C74.984 137.392 70.216 141.2 62.184 141.2H55.608Z" fill="white"/>
  <path d="M81.6018 102.4H104.834C113.506 102.4 118.53 106.528 118.53 114.24C118.53 122.272 113.634 126.72 104.578 126.72H94.4658V140H81.6018V102.4ZM94.4658 111.824V117.872H101.058C103.49 117.872 105.026 116.72 105.026 114.88C105.026 112.976 103.554 111.824 101.058 111.824H94.4658Z" fill="white"/>
  <path d="M143.981 141.2C133.085 141.2 125.821 133.68 125.821 121.2C125.821 108.848 133.149 101.2 143.725 101.2C152.973 101.2 160.173 106.416 161.389 115.216H148.077C147.373 113.312 145.709 112.16 143.341 112.16C139.661 112.16 137.213 115.472 137.213 121.2C137.213 126.992 139.853 130.24 144.493 130.24C147.309 130.24 149.341 128.96 150.173 126.592H144.045V118.944H161.773V124.224C161.773 134.528 154.253 141.2 143.981 141.2Z" fill="white"/>
</svg>
